<?xml version="1.0" encoding="UTF-8" standalone="no"?>
<!-- Created with Inkscape (http://www.inkscape.org/) -->

<svg
   version="1.1"
   id="svg20407"
   width="212"
   height="212"
   viewBox="0 0 212 212"
   sodipodi:docname="favicon.sp.svg"
   inkscape:version="1.2.1 (9c6d41e410, 2022-07-14)"
   xmlns:inkscape="http://www.inkscape.org/namespaces/inkscape"
   xmlns:sodipodi="http://sodipodi.sourceforge.net/DTD/sodipodi-0.dtd"
   xmlns="http://www.w3.org/2000/svg"
   xmlns:svg="http://www.w3.org/2000/svg">
  <defs
     id="defs20411" />
  <sodipodi:namedview
     id="namedview20409"
     pagecolor="#ffffff"
     bordercolor="#000000"
     borderopacity="0.25"
     inkscape:showpageshadow="2"
     inkscape:pageopacity="0.0"
     inkscape:pagecheckerboard="0"
     inkscape:deskcolor="#d1d1d1"
     showgrid="false"
     inkscape:zoom="3.6177778"
     inkscape:cx="58.599509"
     inkscape:cy="70.485258"
     inkscape:window-width="1920"
     inkscape:window-height="1017"
     inkscape:window-x="-8"
     inkscape:window-y="-8"
     inkscape:window-maximized="1"
     inkscape:current-layer="g20413" />
  <g
     inkscape:groupmode="layer"
     inkscape:label="Image"
     id="g20413">
    <ellipse
       style="fill:#ffffff;stroke-width:1.30294"
       id="path20523"
       cx="105.58967"
       cy="105.03687"
       rx="105.31326"
       ry="104.76044" />
    <path
       id="rect21789"
       style="fill:#000000;fill-opacity:1;stroke:none;stroke-width:0.951597;stroke-opacity:1"
       d="m 3.6492167,130.46626 a 105.31326,104.76044 0 0 0 8.0488293,21.56055 H 199.48126 a 105.31326,104.76044 0 0 0 8.04882,-21.56055 z" />
    <path
       id="rect21007"
       style="fill:#e81f1f;fill-opacity:1;stroke:none;stroke-width:3.35069;stroke-opacity:1"
       d="m 1.6550767,88.727987 a 105.31326,104.76044 0 0 0 -1.37890005,16.308583 105.31326,104.76044 0 0 0 0.01953,0.27735 H 210.8836 a 105.31326,104.76044 0 0 0 0.0195,-0.27735 105.31326,104.76044 0 0 0 -1.30469,-16.308583 z" />
    <path
       style="fill:#ffffff;stroke:#000000;stroke-opacity:1"
       d="M 47.266586,48.372234 168.33538,49.201473 169.16462,97.020888 108.0774,169.44102 48.095826,97.020888 Z"
       id="path20525" />
    <rect
       style="fill:#000000;fill-opacity:1;stroke:none;stroke-opacity:1"
       id="rect23969"
       width="105.58968"
       height="26.812038"
       x="56.11179"
       y="56.664616" />
    <text
       xml:space="preserve"
       style="font-style:normal;font-variant:normal;font-weight:normal;font-stretch:normal;font-size:31.4497px;font-family:Arial;-inkscape-font-specification:Arial;fill:#ffffff;fill-opacity:1;stroke:none;stroke-width:0.491401;stroke-opacity:1"
       x="56.602962"
       y="88.853325"
       id="text24025"
       transform="scale(1.1024979,0.90703121)"><tspan
         sodipodi:role="line"
         id="tspan24023"
         x="56.602962"
         y="88.853325"
         style="stroke-width:0.491401">SPFC</tspan></text>
    <path
       style="fill:#ff0000;fill-opacity:1;stroke:none;stroke-opacity:1"
       d="m 58.046686,97.573708 h 43.120394 l 0.55283,54.453302 z"
       id="path24079" />
    <path
       style="fill:#000000;fill-opacity:1;stroke:none;stroke-opacity:1"
       d="M 114.7113,97.850128 V 151.4742 l 43.94964,-52.794827 z"
       id="path24135" />
  </g>
</svg>
