<?xml version="1.0" encoding="UTF-8" standalone="no"?>
<!-- Created with Inkscape (http://www.inkscape.org/) -->

<svg
   version="1.1"
   id="svg9"
   width="1773.3333"
   height="624"
   viewBox="0 0 1773.3333 624"
   sodipodi:docname="nike-logo.svg"
   inkscape:version="1.2.1 (9c6d41e410, 2022-07-14)"
   xmlns:inkscape="http://www.inkscape.org/namespaces/inkscape"
   xmlns:sodipodi="http://sodipodi.sourceforge.net/DTD/sodipodi-0.dtd"
   xmlns="http://www.w3.org/2000/svg"
   xmlns:svg="http://www.w3.org/2000/svg">
  <defs
     id="defs13" />
  <sodipodi:namedview
     id="namedview11"
     pagecolor="#ffffff"
     bordercolor="#000000"
     borderopacity="0.25"
     inkscape:showpageshadow="2"
     inkscape:pageopacity="0.0"
     inkscape:pagecheckerboard="0"
     inkscape:deskcolor="#d1d1d1"
     showgrid="false"
     inkscape:zoom="0.50187972"
     inkscape:cx="781.06363"
     inkscape:cy="173.34831"
     inkscape:window-width="1920"
     inkscape:window-height="1017"
     inkscape:window-x="-8"
     inkscape:window-y="-8"
     inkscape:window-maximized="1"
     inkscape:current-layer="g15" />
  <g
     inkscape:groupmode="layer"
     inkscape:label="Image"
     id="g15">
    <path
       style="fill:#000000"
       d="M 255.04119,0 Z"
       id="path177" />
    <path
       style="fill:none;stroke:#000000;stroke-opacity:1"
       d="M 252.87774,3.8140916 C 232.97067,38.490962 217.36354,74.887802 202.06876,111.40959 c -9.81809,43.84452 -20.39611,89.60723 -12.95131,132.50186 10.29463,32.3685 20.58926,46.26665 30.88389,67.74532 82.16415,80.85586 183.72542,57.22347 266.99624,36.86142 L 753.99383,278.78036 1773.1623,7.7991116 429.21481,577.65675 C 272.79155,634.92987 142.25623,649.78421 63.589367,579.64926 -2.8847594,527.30253 -3.7392096,452.35492 10.787871,380.39834 23.585076,329.88247 40.207518,279.54876 72.555659,229.96389 127.47727,137.54173 192.05406,76.843732 252.87774,3.8140916 Z"
       id="path179"
       sodipodi:nodetypes="cccccccccccc" />
  </g>
</svg>
