<?xml version="1.0" encoding="UTF-8" standalone="no"?>
<!-- Created with Inkscape (http://www.inkscape.org/) -->

<svg
   version="1.1"
   id="svg2897"
   width="900"
   height="550.66669"
   viewBox="0 0 900 550.66669"
   sodipodi:docname="olho_anime.svg"
   inkscape:version="1.2.1 (9c6d41e410, 2022-07-14)"
   xmlns:inkscape="http://www.inkscape.org/namespaces/inkscape"
   xmlns:sodipodi="http://sodipodi.sourceforge.net/DTD/sodipodi-0.dtd"
   xmlns="http://www.w3.org/2000/svg"
   xmlns:svg="http://www.w3.org/2000/svg">
  <defs
     id="defs2901" />
  <sodipodi:namedview
     id="namedview2899"
     pagecolor="#ffffff"
     bordercolor="#000000"
     borderopacity="0.25"
     inkscape:showpageshadow="2"
     inkscape:pageopacity="0.0"
     inkscape:pagecheckerboard="0"
     inkscape:deskcolor="#d1d1d1"
     showgrid="false"
     inkscape:zoom="1.045251"
     inkscape:cx="409.47102"
     inkscape:cy="197.08184"
     inkscape:window-width="1920"
     inkscape:window-height="1017"
     inkscape:window-x="-8"
     inkscape:window-y="-8"
     inkscape:window-maximized="1"
     inkscape:current-layer="g2903" />
  <g
     inkscape:groupmode="layer"
     inkscape:label="Image"
     id="g2903">
    <ellipse
       style="fill:#ffffff;stroke:none;stroke-width:0.609654;stroke-opacity:1;fill-opacity:1"
       id="path4475-7"
       cy="280.5762"
       cx="573.83661"
       rx="20.659138"
       ry="20.997387" />
    <path
       style="fill:#000000;stroke:none;stroke-opacity:1;fill-opacity:1"
       d="m 58.178544,172.50615 c 98.744976,-31.67296 208.201266,-59.60086 349.071266,-58.85504 168.90162,-9.99317 320.36943,26.05245 434.64785,59.53153 1.25083,2.41841 -0.17021,3.5645 -1.18387,4.90459 C 786.282,170.09066 732.92444,157.79718 677.34032,154.40992 558.93236,142.73058 444.63911,138.77831 333.89109,144.94126 l -18.65581,1.91342 c -75.21794,6.7088 -147.33946,19.99746 -212.38917,48.31375 49.52224,74.47354 107.6222,137.51013 172.44661,191.58077 0.54883,2.28215 0.5178,4.30243 -2.39177,5.02272 C 231.41582,362.20422 186.22375,339.07988 131.23997,280.06881 108.41141,259.16668 75.44391,216.1954 58.178544,172.50615 Z"
       id="path2911"
       sodipodi:nodetypes="cccccccccccc" />
    <path
       style="fill:#000000;stroke:none;stroke-opacity:1;fill-opacity:1"
       d="m 314.75693,147.81138 c -0.73019,21.81968 0.89036,42.75784 5.26189,62.66438 5.60849,27.21956 12.32745,53.73246 24.87441,76.53663 10.3597,16.74703 18.94951,35.26394 31.57136,49.74882 35.03421,38.45394 64.21429,46.82398 92.32232,55.01071 28.99577,5.27202 58.70285,0.9413 88.97384,-11.00214 20.81119,-12.0363 45.24745,-26.64449 65.5345,-55.01071 14.49063,-22.08795 27.96047,-38.07976 40.18174,-78.92841 5.94431,-21.65564 11.23717,-43.74558 13.39391,-67.92627 l 0.95671,-23.43934 -18.17746,-2.39177 v 22.48263 c -1.98801,23.63684 -7.37039,43.20044 -12.4372,63.14273 -6.67326,23.42167 -15.66099,45.45466 -28.70124,65.05614 -16.64505,18.5937 -32.77418,37.7033 -53.09729,52.61894 -21.08332,9.57334 -43.09965,22.13425 -77.015,20.09087 -33.40066,-4.28533 -62.22565,-14.82852 -91.84396,-45.44363 -20.5903,-25.5259 -42.12043,-52.44404 -50.22717,-86.58207 -7.93421,-25.28742 -11.44906,-52.2321 -14.35062,-79.40676 l 0.47835,-20.09087 z"
       id="path4421"
       sodipodi:nodetypes="ccccccccccccccccccccc" />
    <ellipse
       style="fill:#ffffff;fill-opacity:1;stroke:#ffffff;stroke-opacity:1"
       id="path4475"
       cy="209.71336"
       cx="412.66177"
       rx="33.486488"
       ry="19.2801" />
    <path
       style="fill:none;stroke:#c30004;stroke-opacity:1"
       id="path4477"
       sodipodi:type="arc"
       sodipodi:cx="412.15439"
       sodipodi:cy="205.14702"
       sodipodi:rx="3.8898444"
       sodipodi:ry="2.8751025"
       sodipodi:start="0"
       sodipodi:end="0.0093349479"
       sodipodi:open="true"
       sodipodi:arc-type="arc"
       d="m 416.04423,205.14702 a 3.8898444,2.8751025 0 0 1 -1.7e-4,0.0268" />
    <path
       style="fill:none;stroke:#c30004;stroke-opacity:1"
       id="path4484"
       sodipodi:type="arc"
       sodipodi:cx="414.353"
       sodipodi:cy="193.64661"
       sodipodi:rx="0.33824736"
       sodipodi:ry="1.5221131"
       sodipodi:start="0"
       sodipodi:end="0.0093349479"
       sodipodi:open="true"
       sodipodi:arc-type="arc"
       d="m 414.69124,193.64661 a 0.33824736,1.5221131 0 0 1 -10e-6,0.0142" />
    <path
       style="fill:#040000;fill-opacity:1;stroke:none;stroke-opacity:1"
       d="m 573.06808,189.189 c 2.12691,-1.67157 4.23443,-3.4013 8.84955,2.39177 -2.85571,16.92714 -7.4298,32.42229 -14.11144,46.16116 -8.56073,15.57598 -17.69954,29.88021 -29.41877,38.5075 -11.96039,10.92686 -20.38755,12.67004 -34.08272,15.78568 -11.53137,0.20981 -23.0369,-0.14926 -36.4745,-5.02272 -8.53619,-5.96451 -17.01267,-11.66033 -26.78782,-23.20016 l -14.11144,-21.04758 c 2.45635,-1.87913 4.82384,-4.02484 7.89284,-4.06601 9.03722,10.92242 17.32565,21.84483 27.50535,32.76725 15.07871,11.82212 31.72029,15.20473 49.98799,9.80626 14.81468,-4.12594 25.49656,-17.0978 36.59408,-29.89712 l 11.71968,-23.91771 z"
       id="path4508"
       sodipodi:nodetypes="cccccccccccccc" />
    <path
       style="fill:#000000;stroke:none;stroke-opacity:1;fill-opacity:1"
       d="m 322.64977,414.97209 c 133.6216,11.62104 273.54833,9.17678 415.40595,2.42514 -61.4326,7.1846 -121.44283,11.52446 -180.62409,14.20639 -35.51716,-0.451 -60.43354,-0.90199 -90.65029,-1.35299 -48.87317,-2.74313 -97.88531,-5.0925 -144.13157,-15.27854 z"
       id="path4510"
       sodipodi:nodetypes="ccccc" />
    <path
       style="fill:#763000;fill-opacity:1;stroke:none;stroke-opacity:1"
       d="m 332.6952,144.94126 c 69.58114,-4.07254 137.70439,-4.13589 204.73551,-1.19589 40.17245,2.06585 79.27218,2.41535 122.41982,9.2415 0.91689,12.22683 1.23203,24.45365 -1.63544,36.68048 l -82.27689,-2.39177 -3.1093,1.67424 c -5.76306,21.51811 -12.88161,45.38117 -23.9177,62.18602 -1.74448,2.2174 -21.52001,28.26211 -37.55079,30.37548 -32.98807,10.52785 -53.20887,-13.33471 -57.3034,-17.58303 -14.04967,-18.48372 -26.28957,-31.03695 -21.625,-26.18636 4.23523,-2.48442 7.98533,-8.36473 11.78583,-13.89224 0.61793,-6.57254 3.98123,-8.26207 1.86036,-21.64783 -1.32688,-4.44886 -1.77866,-8.462 -7.44144,-15.39025 -4.86489,-5.53131 -12.3607,-10.36941 -26.21417,-12.00779 -7.63388,1.43653 -14.14863,0.49492 -26.6301,12.23259 l -51.18388,0.47835 c -2.27531,-13.89344 -6.27723,-27.47295 -1.91341,-42.5735 z"
       id="path8978"
       sodipodi:nodetypes="ccccccccccccccccc" />
    <path
       style="fill:#b38252;fill-opacity:1;stroke:none;stroke-opacity:1"
       d="m 334.13026,187.75394 51.66223,-0.47835 -7.65366,17.93827 6.93613,25.59194 34.68067,12.91556 6.69695,-2.15259 2.63095,4.30518 c 8.47902,12.67638 16.09354,25.35276 34.44149,38.02914 16.92129,6.09181 33.2369,13.15272 60.99013,1.91342 18.89387,-10.61488 31.47016,-29.39986 40.66009,-42.81268 l 14.35062,-38.26832 2.39177,-13.87227 -5.02272,-3.34848 55.24989,1.43507 25.59194,0.9567 -4.06601,24.39606 c -4.60218,23.43642 -10.58076,47.05637 -24.63523,71.7531 -13.39876,25.97006 -30.82369,45.17018 -55.24989,63.86025 -27.97262,22.6615 -65.95041,31.73155 -100.45434,24.15688 -19.56249,-4.39431 -39.60862,-10.2395 -64.81696,-31.57136 -15.87745,-12.86739 -29.74237,-33.78491 -43.76939,-54.054 -16.62558,-27.81968 -26.09817,-62.0394 -30.61466,-100.69352 z"
       id="path11938"
       sodipodi:nodetypes="cccccccccccccccccccccc" />
    <ellipse
       style="fill:#ffffff;fill-opacity:1;stroke:#ffffff;stroke-width:1.01376;stroke-opacity:1"
       id="path19036"
       cx="412.7113"
       cy="210.35236"
       rx="35.360489"
       ry="34.415798" />
    <ellipse
       style="fill:#ffffff;fill-opacity:1;stroke:#ffffff;stroke-width:0.416288;stroke-opacity:1"
       id="path19036-8"
       cx="566.22607"
       cy="279.22318"
       rx="14.66737"
       ry="13.990871" />
  </g>
</svg>
